<svg width="16" height="16" viewBox="0 0 16 16" fill="none" xmlns="http://www.w3.org/2000/svg">
<path fill-rule="evenodd" clip-rule="evenodd" d="M0.666504 7.00008C0.666504 3.50229 3.50205 0.666748 6.99984 0.666748C10.4976 0.666748 13.3332 3.50229 13.3332 7.00008C13.3332 8.50884 12.8056 9.89438 11.9249 10.9823L14.3736 13.431C14.634 13.6914 14.634 14.1135 14.3736 14.3739C14.1133 14.6342 13.6912 14.6342 13.4308 14.3739L10.982 11.9251C9.89414 12.8058 8.5086 13.3334 6.99984 13.3334C3.50205 13.3334 0.666504 10.4979 0.666504 7.00008ZM6.99984 2.00008C4.23843 2.00008 1.99984 4.23867 1.99984 7.00008C1.99984 9.76149 4.23843 12.0001 6.99984 12.0001C9.76125 12.0001 11.9998 9.76149 11.9998 7.00008C11.9998 4.23867 9.76125 2.00008 6.99984 2.00008ZM4.64282 4.30969C5.24532 3.70723 6.07956 3.33342 6.99984 3.33342C7.92011 3.33342 8.75436 3.70723 9.35684 4.30971C9.61719 4.57006 9.61719 4.99217 9.35684 5.25252C9.09649 5.51287 8.67438 5.51287 8.41403 5.25252C8.05138 4.88987 7.5523 4.66675 6.99984 4.66675C6.44738 4.66675 5.94829 4.88987 5.58559 5.25254C5.32523 5.51288 4.90312 5.51286 4.64278 5.2525C4.38244 4.99214 4.38246 4.57003 4.64282 4.30969Z" fill="#8EC6FF"/>
</svg>
