<svg width="25" height="25" viewBox="0 0 25 25" fill="none" xmlns="http://www.w3.org/2000/svg">
<path d="M20.4844 17.0879H22.4844V19.0879H2.48438V17.0879H4.48438V10.0879C4.48438 7.96616 5.32723 5.93133 6.82752 4.43104C8.32781 2.93075 10.3626 2.08789 12.4844 2.08789C14.6061 2.08789 16.6409 2.93075 18.1412 4.43104C19.6415 5.93133 20.4844 7.96616 20.4844 10.0879V17.0879ZM18.4844 17.0879V10.0879C18.4844 8.49659 17.8522 6.97047 16.727 5.84525C15.6018 4.72003 14.0757 4.08789 12.4844 4.08789C10.8931 4.08789 9.36695 4.72003 8.24173 5.84525C7.11652 6.97047 6.48438 8.49659 6.48438 10.0879V17.0879H18.4844ZM9.48438 21.0879H15.4844V23.0879H9.48438V21.0879Z" fill="#BBBBBB"/>
</svg>
