<svg width="19" height="19" viewBox="0 0 19 19" fill="none" xmlns="http://www.w3.org/2000/svg">
<path fill-rule="evenodd" clip-rule="evenodd" d="M0.896484 8.38672C0.896484 4.45171 4.08647 1.26172 8.02149 1.26172C11.9565 1.26172 15.1465 4.45171 15.1465 8.38672C15.1465 10.0841 14.553 11.6428 13.5621 12.8667L16.317 15.6216C16.6099 15.9144 16.6099 16.3893 16.317 16.6822C16.0241 16.9751 15.5492 16.9751 15.2563 16.6822L12.5015 13.9274C11.2776 14.9182 9.71884 15.5117 8.02149 15.5117C4.08647 15.5117 0.896484 12.3217 0.896484 8.38672ZM8.02149 2.76172C4.9149 2.76172 2.39648 5.28013 2.39648 8.38672C2.39648 11.4933 4.9149 14.0117 8.02149 14.0117C11.1281 14.0117 13.6465 11.4933 13.6465 8.38672C13.6465 5.28013 11.1281 2.76172 8.02149 2.76172ZM5.36984 5.36003C6.04766 4.68226 6.98618 4.26172 8.02149 4.26172C9.05679 4.26172 9.99532 4.68226 10.6731 5.36005C10.966 5.65294 10.966 6.12782 10.6731 6.42071C10.3802 6.71361 9.90535 6.71361 9.61246 6.42071C9.20447 6.01273 8.643 5.76172 8.02149 5.76172C7.39997 5.76172 6.83849 6.01273 6.43046 6.42073C6.13756 6.71361 5.66268 6.7136 5.3698 6.42069C5.07692 6.12779 5.07693 5.65292 5.36984 5.36003Z" fill="#BBBBBB"/>
</svg>
