<svg width="25" height="25" viewBox="0 0 25 25" fill="none" xmlns="http://www.w3.org/2000/svg">
<path d="M20.3379 17.5767H22.3379V19.5767H2.33789V17.5767H4.33789V10.5767C4.33789 8.45493 5.18075 6.4201 6.68104 4.91981C8.18133 3.41952 10.2162 2.57666 12.3379 2.57666C14.4596 2.57666 16.4945 3.41952 17.9947 4.91981C19.495 6.4201 20.3379 8.45493 20.3379 10.5767V17.5767ZM18.3379 17.5767V10.5767C18.3379 8.98536 17.7058 7.45924 16.5805 6.33402C15.4553 5.2088 13.9292 4.57666 12.3379 4.57666C10.7466 4.57666 9.22047 5.2088 8.09525 6.33402C6.97003 7.45924 6.33789 8.98536 6.33789 10.5767V17.5767H18.3379ZM9.33789 21.5767H15.3379V23.5767H9.33789V21.5767Z" fill="white"/>
</svg>
