<svg width="29" height="29" viewBox="0 0 29 29" fill="none" xmlns="http://www.w3.org/2000/svg">
<path fill-rule="evenodd" clip-rule="evenodd" d="M5.83008 7.75208C5.83008 6.74695 6.6449 5.93213 7.65003 5.93213C8.65516 5.93213 9.46999 6.74695 9.46999 7.75208C9.46999 8.75722 8.65516 9.57204 7.65003 9.57204C6.6449 9.57204 5.83008 8.75722 5.83008 7.75208ZM5.83013 15.0319C5.83013 14.0268 6.64495 13.212 7.65009 13.212C8.65522 13.212 9.47004 14.0268 9.47004 15.0319C9.47004 16.037 8.65522 16.8519 7.65009 16.8519C6.64495 16.8519 5.83013 16.037 5.83013 15.0319ZM14.93 5.93215C13.9248 5.93215 13.11 6.74697 13.11 7.7521C13.11 8.75723 13.9248 9.57206 14.93 9.57206C15.9351 9.57206 16.7499 8.75723 16.7499 7.7521C16.7499 6.74697 15.9351 5.93215 14.93 5.93215ZM13.11 15.0319C13.11 14.0268 13.9248 13.212 14.93 13.212C15.9351 13.212 16.7499 14.0268 16.7499 15.0319C16.7499 16.037 15.9351 16.8519 14.93 16.8519C13.9248 16.8519 13.11 16.037 13.11 15.0319ZM22.2098 5.93215C21.2046 5.93215 20.3898 6.74697 20.3898 7.7521C20.3898 8.75723 21.2046 9.57206 22.2098 9.57206C23.2149 9.57206 24.0297 8.75723 24.0297 7.7521C24.0297 6.74697 23.2149 5.93215 22.2098 5.93215ZM20.3898 15.0319C20.3898 14.0268 21.2046 13.212 22.2098 13.212C23.2149 13.212 24.0297 14.0268 24.0297 15.0319C24.0297 16.037 23.2149 16.8519 22.2098 16.8519C21.2046 16.8519 20.3898 16.037 20.3898 15.0319ZM7.65009 20.4918C6.64495 20.4918 5.83013 21.3066 5.83013 22.3117C5.83013 23.3169 6.64495 24.1317 7.65009 24.1317C8.65522 24.1317 9.47004 23.3169 9.47004 22.3117C9.47004 21.3066 8.65522 20.4918 7.65009 20.4918ZM13.11 22.3117C13.11 21.3066 13.9248 20.4918 14.93 20.4918C15.9351 20.4918 16.7499 21.3066 16.7499 22.3117C16.7499 23.3169 15.9351 24.1317 14.93 24.1317C13.9248 24.1317 13.11 23.3169 13.11 22.3117ZM22.2098 20.4918C21.2046 20.4918 20.3898 21.3066 20.3898 22.3117C20.3898 23.3169 21.2046 24.1317 22.2098 24.1317C23.2149 24.1317 24.0297 23.3169 24.0297 22.3117C24.0297 21.3066 23.2149 20.4918 22.2098 20.4918Z" fill="white"/>
</svg>
