<svg width="30" height="30" viewBox="0 0 30 30" fill="none" xmlns="http://www.w3.org/2000/svg">
<path fill-rule="evenodd" clip-rule="evenodd" d="M4.935 7.5H25.0637C25.7162 7.5 26.25 8.03375 26.25 8.68625V8.81375C26.25 9.46625 25.7162 10 25.0637 10H4.935C4.2825 10 3.75 9.46625 3.75 8.81375V8.68625C3.75 8.03375 4.2825 7.5 4.935 7.5ZM25.0637 13.75H4.935C4.2825 13.75 3.75 14.2838 3.75 14.9363V15.0637C3.75 15.7163 4.2825 16.25 4.935 16.25H25.0637C25.7162 16.25 26.25 15.7163 26.25 15.0637V14.9363C26.25 14.2838 25.7162 13.75 25.0637 13.75ZM25.0637 20H4.935C4.2825 20 3.75 20.5337 3.75 21.1862V21.3138C3.75 21.9663 4.2825 22.5 4.935 22.5H25.0637C25.7162 22.5 26.25 21.9663 26.25 21.3138V21.1862C26.25 20.5337 25.7162 20 25.0637 20Z" fill="#45A0FB"/>
</svg>
