<svg width="34" height="34" viewBox="0 0 34 34" fill="none" xmlns="http://www.w3.org/2000/svg">
<path d="M17 0C12.9676 0 9.26425 1.40521 6.34973 3.75096C6.25288 3.71414 6.14802 3.69293 6.03795 3.69293C5.55247 3.69293 5.15863 4.08676 5.15863 4.57224C5.15863 5.05771 5.55247 5.45154 6.03795 5.45154C6.52344 5.45154 6.91727 5.05771 6.91727 4.57224C6.91727 4.40774 6.87124 4.25445 6.7928 4.12278C9.59645 1.89749 13.1425 0.566727 17.0004 0.566727C26.0765 0.566727 33.4341 7.92417 33.4341 17.0002C33.4341 26.0762 26.0765 33.4337 17.0004 33.4337C7.92426 33.4337 0.566733 26.0762 0.566733 17.0002C0.566733 13.1712 1.8775 9.64956 4.0732 6.85595C4.0832 6.85675 4.09321 6.85915 4.10361 6.85915C4.36257 6.85915 4.57269 6.64903 4.57269 6.39008C4.57269 6.13113 4.36257 5.92101 4.10361 5.92101C3.84466 5.92101 3.63454 6.13113 3.63454 6.39008C3.63454 6.4225 3.63774 6.45412 3.64414 6.48454C1.3628 9.37821 0 13.0295 0 17.0002C0 26.3892 7.61128 34 17 34C26.3887 34 34 26.3888 34 17.0002C34 7.61159 26.3891 0 17 0ZM6.03795 5.27584C5.64932 5.27584 5.33434 4.96086 5.33434 4.57224C5.33434 4.18361 5.64932 3.86863 6.03795 3.86863C6.42658 3.86863 6.74157 4.18361 6.74157 4.57224C6.74157 4.96086 6.42658 5.27584 6.03795 5.27584Z" fill="#0F56B3"/>
<path d="M16.687 20.1114L18.3451 18.3636C19.7223 16.9316 20.67 15.6905 21.1884 14.6403C21.7067 13.5905 21.9661 12.6103 21.9661 11.6994C21.9661 10.9345 21.7523 10.1821 21.3245 9.44126C20.897 8.70084 20.3267 8.13411 19.6143 7.74148C18.9015 7.34886 18.0794 7.15234 17.1477 7.15234C15.6387 7.15234 14.4028 7.62702 13.4398 8.57596C12.4769 9.52491 11.957 10.8269 11.8805 12.4814H14.7278C14.7554 11.6822 14.978 11.0494 15.3954 10.5835C15.8124 10.1177 16.3339 9.88472 16.9599 9.88472C17.5787 9.88472 18.0847 10.0776 18.4772 10.4635C18.8698 10.8493 19.0663 11.338 19.0663 11.9287C19.0663 12.499 18.877 13.137 18.4979 13.8426C18.119 14.5482 17.3561 15.4819 16.2086 16.6426L11.4746 21.4706V22.925H15.9945H29.8162C30.2292 22.0332 30.5518 21.0916 30.7723 20.1114H16.687V20.1114Z" fill="#0F56B3"/>
<path d="M28.7089 8.14203C28.7177 8.10641 28.7233 8.06999 28.7233 8.03157C28.7233 7.77262 28.5132 7.5625 28.2543 7.5625C27.9954 7.5625 27.7853 7.77262 27.7853 8.03157C27.7853 8.29052 27.9954 8.50064 28.2543 8.50064C28.2587 8.50064 28.2627 8.49944 28.2671 8.49944C30.0541 10.8644 31.1167 13.8077 31.1167 17.0007C31.1167 18.0702 30.9971 19.1116 30.7717 20.1125C30.5511 21.0931 30.2281 22.0348 29.8156 22.9262C27.5759 27.7629 22.6798 31.1185 16.9988 31.1185C13.7797 31.1185 10.8144 30.0391 8.43939 28.2256C8.51384 28.0963 8.55746 27.9471 8.55746 27.787C8.55746 27.3016 8.16363 26.9077 7.67815 26.9077C7.19266 26.9077 6.79883 27.3016 6.79883 27.787C6.79883 28.2724 7.19266 28.6663 7.67815 28.6663C7.79261 28.6663 7.90148 28.6439 8.00194 28.6038C10.4874 30.5337 13.6088 31.6832 16.9988 31.6832C22.9992 31.6832 28.1578 28.0835 30.4355 22.9266C30.8306 22.032 31.1387 21.0906 31.3501 20.1129C31.5666 19.11 31.6815 18.069 31.6815 17.0011C31.6819 13.6732 30.5744 10.6043 28.7089 8.14203ZM6.97493 27.7866C6.97493 27.3979 7.28992 27.083 7.67855 27.083C8.06717 27.083 8.38216 27.3979 8.38216 27.7866C8.38216 28.1752 8.06717 28.4902 7.67855 28.4902C7.28992 28.4902 6.97493 28.1752 6.97493 27.7866Z" fill="#0F56B3"/>
<path d="M5.74402 25.5009C5.73962 25.5009 5.73562 25.5021 5.73121 25.5021C3.94416 23.1372 2.88154 20.1939 2.88154 17.0008C2.88154 9.20393 9.20246 2.88309 16.9994 2.88309C20.2185 2.88309 23.1839 3.96251 25.5589 5.77595C25.4844 5.90523 25.4408 6.05451 25.4408 6.21461C25.4408 6.70009 25.8346 7.09391 26.3201 7.09391C26.8055 7.09391 27.1994 6.70009 27.1994 6.21461C27.1994 5.72913 26.8055 5.3353 26.3201 5.3353C26.2056 5.3353 26.0968 5.35771 25.9963 5.39773C23.5108 3.46782 20.3894 2.31836 16.999 2.31836C8.88987 2.31836 2.31641 8.89175 2.31641 17.0008C2.31641 20.3283 3.42346 23.3969 5.28935 25.8595C5.28055 25.8952 5.27495 25.9316 5.27495 25.97C5.27495 26.2289 5.48507 26.4391 5.74402 26.4391C6.00297 26.4391 6.2131 26.2289 6.2131 25.97C6.2131 25.711 6.00297 25.5009 5.74402 25.5009ZM26.3201 5.5114C26.7087 5.5114 27.0237 5.82638 27.0237 6.21501C27.0237 6.60363 26.7087 6.91861 26.3201 6.91861C25.9315 6.91861 25.6165 6.60363 25.6165 6.21501C25.6165 5.82638 25.9315 5.5114 26.3201 5.5114Z" fill="#0F56B3"/>
</svg>
