<svg width="32" height="32" viewBox="0 0 32 32" fill="none" xmlns="http://www.w3.org/2000/svg">
<path d="M15.9998 0C12.2047 0 8.71919 1.32255 5.97615 3.53032C5.88499 3.49566 5.7863 3.4757 5.68271 3.4757C5.22579 3.4757 4.85513 3.84636 4.85513 4.30328C4.85513 4.7602 5.22579 5.13086 5.68271 5.13086C6.13963 5.13086 6.51029 4.7602 6.51029 4.30328C6.51029 4.14846 6.46698 4.00419 6.39314 3.88026C9.03184 1.78588 12.3693 0.53339 16.0002 0.53339C24.5423 0.53339 31.467 7.45804 31.467 16.0002C31.467 24.5423 24.5423 31.467 16.0002 31.467C7.45804 31.467 0.53339 24.5423 0.53339 16.0002C0.53339 12.3964 1.76704 9.08194 3.83355 6.45266C3.84297 6.45341 3.85239 6.45567 3.86218 6.45567C4.1059 6.45567 4.30366 6.25791 4.30366 6.01419C4.30366 5.77048 4.1059 5.57272 3.86218 5.57272C3.61846 5.57272 3.4207 5.77048 3.4207 6.01419C3.4207 6.04471 3.42372 6.07447 3.42974 6.1031C1.28262 8.82655 0 12.2631 0 16.0002C0 24.8369 7.16347 32 15.9998 32C24.8362 32 31.9996 24.8365 31.9996 16.0002C31.9996 7.16385 24.8365 0 15.9998 0ZM5.68271 4.9655C5.31695 4.9655 5.02049 4.66904 5.02049 4.30328C5.02049 3.93752 5.31695 3.64106 5.68271 3.64106C6.04848 3.64106 6.34493 3.93752 6.34493 4.30328C6.34493 4.66904 6.04848 4.9655 5.68271 4.9655Z" fill="#A50030"/>
<path d="M15.7065 18.929L17.267 17.284C18.5632 15.9363 19.4552 14.7681 19.9431 13.7797C20.4309 12.7917 20.675 11.8692 20.675 11.0118C20.675 10.292 20.4738 9.5838 20.0711 8.88655C19.6688 8.18967 19.1321 7.65629 18.4616 7.28675C17.7907 6.91722 17.017 6.73227 16.1401 6.73227C14.7199 6.73227 13.5567 7.17902 12.6504 8.07215C11.7441 8.96527 11.2548 10.1906 11.1828 11.7479H13.8626C13.8886 10.9956 14.098 10.4001 14.4909 9.96161C14.8834 9.52315 15.3742 9.30392 15.9634 9.30392C16.5457 9.30392 17.0219 9.48548 17.3914 9.84861C17.7609 10.2117 17.9458 10.6717 17.9458 11.2277C17.9458 11.7644 17.7677 12.3649 17.4109 13.029C17.0542 13.6931 16.3362 14.5719 15.2562 15.6643L10.8008 20.2083V21.5772H15.0547H28.0633C28.452 20.7378 28.7555 19.8516 28.9631 18.929H15.7065Z" fill="#A50030"/>
<path d="M27.0214 7.66254C27.0297 7.62901 27.035 7.59473 27.035 7.55857C27.035 7.31486 26.8372 7.1171 26.5936 7.1171C26.3498 7.1171 26.1521 7.31486 26.1521 7.55857C26.1521 7.80229 26.3498 8.00005 26.5936 8.00005C26.5977 8.00005 26.6014 7.99892 26.6055 7.99892C28.2875 10.2248 29.2876 12.9949 29.2876 16.0001C29.2876 17.0067 29.1749 17.9868 28.9628 18.9289C28.7552 19.8518 28.4512 20.7381 28.0629 21.577C25.955 26.1293 21.347 29.2874 16.0003 29.2874C12.9706 29.2874 10.1797 28.2715 7.94443 26.5647C8.0145 26.4431 8.05556 26.3026 8.05556 26.1519C8.05556 25.695 7.6849 25.3243 7.22797 25.3243C6.77105 25.3243 6.40039 25.695 6.40039 26.1519C6.40039 26.6088 6.77105 26.9795 7.22797 26.9795C7.33571 26.9795 7.43817 26.9584 7.53271 26.9207C9.87194 28.7371 12.8097 29.8189 16.0003 29.8189C21.6476 29.8189 26.5027 26.431 28.6464 21.5774C29.0182 20.7355 29.3082 19.8494 29.5072 18.9293C29.711 17.9854 29.8191 17.0055 29.8191 16.0005C29.8194 12.8684 28.7771 9.97992 27.0214 7.66254ZM6.56613 26.1515C6.56613 25.7857 6.86259 25.4893 7.22835 25.4893C7.59411 25.4893 7.89057 25.7857 7.89057 26.1515C7.89057 26.5173 7.59411 26.8137 7.22835 26.8137C6.86259 26.8137 6.56613 26.5173 6.56613 26.1515Z" fill="#A50030"/>
<path d="M5.40759 24.0003C5.40345 24.0003 5.39968 24.0014 5.39554 24.0014C3.71363 21.7756 2.71352 19.0054 2.71352 16.0002C2.71352 8.66193 8.66255 2.7129 16.0008 2.7129C19.0305 2.7129 21.8214 3.72883 24.0567 5.4356C23.9866 5.55727 23.9455 5.69778 23.9455 5.84845C23.9455 6.30537 24.3162 6.67603 24.7731 6.67603C25.23 6.67603 25.6006 6.30537 25.6006 5.84845C25.6006 5.39153 25.23 5.02087 24.7731 5.02087C24.6653 5.02087 24.5629 5.04196 24.4683 5.07963C22.1291 3.26324 19.1914 2.1814 16.0004 2.1814C8.36836 2.1814 2.18164 8.36812 2.18164 16.0002C2.18164 19.132 3.22356 22.02 4.97968 24.3378C4.97139 24.3713 4.96612 24.4056 4.96612 24.4418C4.96612 24.6855 5.16388 24.8832 5.40759 24.8832C5.65131 24.8832 5.84907 24.6855 5.84907 24.4418C5.84907 24.198 5.65131 24.0003 5.40759 24.0003ZM24.7731 5.18661C25.1388 5.18661 25.4353 5.48306 25.4353 5.84883C25.4353 6.21459 25.1388 6.51105 24.7731 6.51105C24.4073 6.51105 24.1109 6.21459 24.1109 5.84883C24.1109 5.48306 24.4073 5.18661 24.7731 5.18661Z" fill="#A50030"/>
</svg>
