<svg width="32" height="32" viewBox="0 0 32 32" fill="none" xmlns="http://www.w3.org/2000/svg">
<path d="M15.9998 0C12.2047 0 8.71919 1.32255 5.97615 3.53032C5.88499 3.49566 5.7863 3.4757 5.68271 3.4757C5.22579 3.4757 4.85513 3.84636 4.85513 4.30328C4.85513 4.7602 5.22579 5.13086 5.68271 5.13086C6.13963 5.13086 6.51029 4.7602 6.51029 4.30328C6.51029 4.14846 6.46698 4.00419 6.39314 3.88026C9.03184 1.78588 12.3693 0.53339 16.0002 0.53339C24.5423 0.53339 31.467 7.45804 31.467 16.0002C31.467 24.5423 24.5423 31.467 16.0002 31.467C7.45804 31.467 0.53339 24.5423 0.53339 16.0002C0.53339 12.3964 1.76704 9.08194 3.83355 6.45266C3.84297 6.45341 3.85239 6.45567 3.86218 6.45567C4.1059 6.45567 4.30366 6.25791 4.30366 6.01419C4.30366 5.77048 4.1059 5.57272 3.86218 5.57272C3.61846 5.57272 3.4207 5.77048 3.4207 6.01419C3.4207 6.04471 3.42372 6.07447 3.42974 6.1031C1.28262 8.82655 0 12.2631 0 16.0002C0 24.8369 7.16347 32 15.9998 32C24.8362 32 31.9996 24.8365 31.9996 16.0002C31.9996 7.16385 24.8365 0 15.9998 0ZM5.68271 4.9655C5.31695 4.9655 5.02049 4.66904 5.02049 4.30328C5.02049 3.93752 5.31695 3.64106 5.68271 3.64106C6.04848 3.64106 6.34493 3.93752 6.34493 4.30328C6.34493 4.66904 6.04848 4.9655 5.68271 4.9655Z" fill="white"/>
<path d="M15.706 18.929L17.2665 17.284C18.5627 15.9362 19.4547 14.7681 19.9426 13.7796C20.4304 12.7916 20.6745 11.8691 20.6745 11.0117C20.6745 10.2919 20.4733 9.5837 20.0707 8.88645C19.6684 8.18958 19.1316 7.65619 18.4611 7.28666C17.7902 6.91713 17.0165 6.73218 16.1396 6.73218C14.7194 6.73218 13.5562 7.17893 12.6499 8.07206C11.7436 8.96518 11.2543 10.1905 11.1823 11.7478H13.8621C13.8881 10.9955 14.0975 10.4 14.4904 9.96152C14.8829 9.52306 15.3737 9.30383 15.9629 9.30383C16.5452 9.30383 17.0214 9.48539 17.3909 9.84852C17.7604 10.2116 17.9453 10.6716 17.9453 11.2276C17.9453 11.7643 17.7672 12.3648 17.4104 13.0289C17.0538 13.693 16.3357 14.5718 15.2558 15.6642L10.8003 20.2082V21.5771H15.0542H28.0628C28.4515 20.7377 28.755 19.8515 28.9626 18.929H15.706Z" fill="white"/>
<path d="M27.0214 7.66263C27.0297 7.62911 27.035 7.59483 27.035 7.55866C27.035 7.31495 26.8372 7.11719 26.5936 7.11719C26.3498 7.11719 26.1521 7.31495 26.1521 7.55866C26.1521 7.80238 26.3498 8.00014 26.5936 8.00014C26.5977 8.00014 26.6014 7.99901 26.6055 7.99901C28.2875 10.2249 29.2876 12.995 29.2876 16.0002C29.2876 17.0067 29.1749 17.9869 28.9628 18.929C28.7552 19.8519 28.4512 20.7382 28.0629 21.5771C25.955 26.1294 21.347 29.2875 16.0003 29.2875C12.9706 29.2875 10.1797 28.2716 7.94443 26.5648C8.0145 26.4431 8.05556 26.3026 8.05556 26.152C8.05556 25.6951 7.6849 25.3244 7.22797 25.3244C6.77105 25.3244 6.40039 25.6951 6.40039 26.152C6.40039 26.6089 6.77105 26.9796 7.22797 26.9796C7.33571 26.9796 7.43817 26.9585 7.53271 26.9208C9.87194 28.7372 12.8097 29.819 16.0003 29.819C21.6476 29.819 26.5027 26.4311 28.6464 21.5775C29.0182 20.7356 29.3082 19.8495 29.5072 18.9294C29.711 17.9855 29.8191 17.0056 29.8191 16.0006C29.8194 12.8685 28.7771 9.98001 27.0214 7.66263ZM6.56613 26.1516C6.56613 25.7858 6.86259 25.4894 7.22835 25.4894C7.59411 25.4894 7.89057 25.7858 7.89057 26.1516C7.89057 26.5174 7.59411 26.8138 7.22835 26.8138C6.86259 26.8138 6.56613 26.5174 6.56613 26.1516Z" fill="white"/>
<path d="M5.40711 24.0003C5.40296 24.0003 5.3992 24.0014 5.39505 24.0014C3.71314 21.7756 2.71304 19.0054 2.71304 16.0002C2.71304 8.66193 8.66207 2.7129 16.0003 2.7129C19.03 2.7129 21.8209 3.72883 24.0562 5.4356C23.9861 5.55727 23.945 5.69778 23.945 5.84845C23.945 6.30537 24.3157 6.67603 24.7726 6.67603C25.2295 6.67603 25.6001 6.30537 25.6001 5.84845C25.6001 5.39153 25.2295 5.02087 24.7726 5.02087C24.6648 5.02087 24.5624 5.04196 24.4678 5.07963C22.1286 3.26324 19.1909 2.1814 15.9999 2.1814C8.36787 2.1814 2.18115 8.36812 2.18115 16.0002C2.18115 19.132 3.22307 22.02 4.97919 24.3378C4.9709 24.3713 4.96563 24.4056 4.96563 24.4418C4.96563 24.6855 5.16339 24.8832 5.40711 24.8832C5.65082 24.8832 5.84858 24.6855 5.84858 24.4418C5.84858 24.198 5.65082 24.0003 5.40711 24.0003ZM24.7726 5.18661C25.1383 5.18661 25.4348 5.48306 25.4348 5.84883C25.4348 6.21459 25.1383 6.51105 24.7726 6.51105C24.4069 6.51105 24.1104 6.21459 24.1104 5.84883C24.1104 5.48306 24.4069 5.18661 24.7726 5.18661Z" fill="white"/>
</svg>
