<svg width="29" height="30" viewBox="0 0 29 30" fill="none" xmlns="http://www.w3.org/2000/svg">
<path fill-rule="evenodd" clip-rule="evenodd" d="M5.97461 8.26429C5.97461 7.25916 6.78943 6.44434 7.79456 6.44434C8.7997 6.44434 9.61452 7.25916 9.61452 8.26429C9.61452 9.26942 8.7997 10.0842 7.79456 10.0842C6.78943 10.0842 5.97461 9.26942 5.97461 8.26429ZM5.97466 15.5441C5.97466 14.539 6.78948 13.7242 7.79462 13.7242C8.79975 13.7242 9.61457 14.539 9.61457 15.5441C9.61457 16.5493 8.79975 17.3641 7.79462 17.3641C6.78948 17.3641 5.97466 16.5493 5.97466 15.5441ZM15.0745 6.44435C14.0693 6.44435 13.2545 7.25918 13.2545 8.26431C13.2545 9.26944 14.0693 10.0843 15.0745 10.0843C16.0796 10.0843 16.8944 9.26944 16.8944 8.26431C16.8944 7.25918 16.0796 6.44435 15.0745 6.44435ZM13.2545 15.5441C13.2545 14.539 14.0693 13.7242 15.0745 13.7242C16.0796 13.7242 16.8944 14.539 16.8944 15.5441C16.8944 16.5493 16.0796 17.3641 15.0745 17.3641C14.0693 17.3641 13.2545 16.5493 13.2545 15.5441ZM22.3543 6.44435C21.3492 6.44435 20.5343 7.25918 20.5343 8.26431C20.5343 9.26944 21.3492 10.0843 22.3543 10.0843C23.3594 10.0843 24.1742 9.26944 24.1742 8.26431C24.1742 7.25918 23.3594 6.44435 22.3543 6.44435ZM20.5343 15.5441C20.5343 14.539 21.3492 13.7242 22.3543 13.7242C23.3594 13.7242 24.1742 14.539 24.1742 15.5441C24.1742 16.5493 23.3594 17.3641 22.3543 17.3641C21.3492 17.3641 20.5343 16.5493 20.5343 15.5441ZM7.79462 21.004C6.78948 21.004 5.97466 21.8188 5.97466 22.8239C5.97466 23.8291 6.78948 24.6439 7.79462 24.6439C8.79975 24.6439 9.61457 23.8291 9.61457 22.8239C9.61457 21.8188 8.79975 21.004 7.79462 21.004ZM13.2545 22.8239C13.2545 21.8188 14.0693 21.004 15.0745 21.004C16.0796 21.004 16.8944 21.8188 16.8944 22.8239C16.8944 23.8291 16.0796 24.6439 15.0745 24.6439C14.0693 24.6439 13.2545 23.8291 13.2545 22.8239ZM22.3543 21.004C21.3492 21.004 20.5343 21.8188 20.5343 22.8239C20.5343 23.8291 21.3492 24.6439 22.3543 24.6439C23.3594 24.6439 24.1742 23.8291 24.1742 22.8239C24.1742 21.8188 23.3594 21.004 22.3543 21.004Z" fill="#BBBBBB"/>
</svg>
