<svg width="77" height="49" viewBox="0 0 77 49" fill="none" xmlns="http://www.w3.org/2000/svg">
<path d="M27.8667 9C24.3815 9 21.1806 10.1986 18.6615 12.1994C18.5778 12.168 18.4872 12.1499 18.392 12.1499C17.9724 12.1499 17.632 12.4858 17.632 12.8999C17.632 13.314 17.9724 13.6499 18.392 13.6499C18.8117 13.6499 19.1521 13.314 19.1521 12.8999C19.1521 12.7596 19.1123 12.6288 19.0445 12.5165C21.4677 10.6185 24.5327 9.48339 27.8671 9.48339C35.7118 9.48339 42.071 15.7589 42.071 23.5003C42.071 31.2418 35.7118 37.5173 27.8671 37.5173C20.0224 37.5173 13.6632 31.2418 13.6632 23.5003C13.6632 20.2344 14.7961 17.2306 16.6939 14.8478C16.7025 14.8485 16.7112 14.8505 16.7202 14.8505C16.944 14.8505 17.1256 14.6713 17.1256 14.4504C17.1256 14.2296 16.944 14.0503 16.7202 14.0503C16.4963 14.0503 16.3147 14.2296 16.3147 14.4504C16.3147 14.4781 16.3175 14.5051 16.323 14.531C14.3512 16.9992 13.1733 20.1135 13.1733 23.5003C13.1733 31.5087 19.7519 38.0003 27.8667 38.0003C35.9816 38.0003 42.5601 31.5084 42.5601 23.5003C42.5601 15.4923 35.9819 9 27.8667 9ZM18.392 13.5C18.0562 13.5 17.7839 13.2314 17.7839 12.8999C17.7839 12.5684 18.0562 12.2998 18.392 12.2998C18.7279 12.2998 19.0002 12.5684 19.0002 12.8999C19.0002 13.2314 18.7279 13.5 18.392 13.5Z" fill="white"/>
<path d="M27.5969 26.1545L29.03 24.6637C30.2204 23.4423 31.0396 22.3837 31.4876 21.4879C31.9356 20.5925 32.1597 19.7564 32.1597 18.9795C32.1597 18.3271 31.975 17.6853 31.6052 17.0534C31.2358 16.4219 30.7428 15.9385 30.1271 15.6036C29.511 15.2687 28.8004 15.1011 27.9952 15.1011C26.6909 15.1011 25.6227 15.5059 24.7904 16.3154C23.9581 17.1248 23.5087 18.2353 23.4426 19.6465H25.9036C25.9275 18.9648 26.1198 18.4251 26.4806 18.0277C26.8411 17.6303 27.2918 17.4317 27.8328 17.4317C28.3677 17.4317 28.805 17.5962 29.1443 17.9253C29.4836 18.2544 29.6534 18.6712 29.6534 19.1751C29.6534 19.6615 29.4899 20.2057 29.1622 20.8075C28.8347 21.4094 28.1752 22.2058 27.1835 23.1958L23.0918 27.3138V28.5544H26.9984H38.9448C39.3018 27.7938 39.5805 26.9906 39.7711 26.1545H27.5969Z" fill="white"/>
<path d="M37.9876 15.9445C37.9952 15.9141 38 15.8831 38 15.8503C38 15.6294 37.8184 15.4502 37.5947 15.4502C37.3708 15.4502 37.1892 15.6294 37.1892 15.8503C37.1892 16.0712 37.3708 16.2504 37.5947 16.2504C37.5985 16.2504 37.6019 16.2494 37.6057 16.2494C39.1502 18.2666 40.0687 20.777 40.0687 23.5006C40.0687 24.4127 39.9653 25.301 39.7704 26.1548C39.5798 26.9911 39.3007 27.7944 38.9441 28.5546C37.0082 32.6802 32.7765 35.5423 27.8663 35.5423C25.084 35.5423 22.521 34.6216 20.4683 33.0748C20.5326 32.9646 20.5703 32.8372 20.5703 32.7007C20.5703 32.2866 20.2299 31.9507 19.8103 31.9507C19.3907 31.9507 19.0503 32.2866 19.0503 32.7007C19.0503 33.1148 19.3907 33.4507 19.8103 33.4507C19.9092 33.4507 20.0033 33.4316 20.0902 33.3974C22.2384 35.0435 24.9363 36.024 27.8663 36.024C33.0525 36.024 37.5112 32.9536 39.4799 28.555C39.8214 27.792 40.0876 26.989 40.2704 26.1551C40.4575 25.2997 40.5568 24.4117 40.5568 23.5009C40.5571 20.6623 39.6 18.0447 37.9876 15.9445ZM19.2025 32.7003C19.2025 32.3689 19.4748 32.1002 19.8106 32.1002C20.1465 32.1002 20.4188 32.3689 20.4188 32.7003C20.4188 33.0318 20.1465 33.3005 19.8106 33.3005C19.4748 33.3005 19.2025 33.0318 19.2025 32.7003Z" fill="white"/>
<path d="M18.1383 30.7506C18.1345 30.7506 18.1311 30.7517 18.1273 30.7517C16.5827 28.7345 15.6642 26.224 15.6642 23.5005C15.6642 16.8501 21.1275 11.4587 27.8666 11.4587C30.6489 11.4587 33.2119 12.3794 35.2647 13.9262C35.2003 14.0365 35.1626 14.1638 35.1626 14.3004C35.1626 14.7144 35.503 15.0504 35.9226 15.0504C36.3422 15.0504 36.6826 14.7144 36.6826 14.3004C36.6826 13.8863 36.3422 13.5504 35.9226 13.5504C35.8236 13.5504 35.7296 13.5695 35.6427 13.6036C33.4945 11.9575 30.7966 10.9771 27.8662 10.9771C20.8573 10.9771 15.1758 16.5838 15.1758 23.5005C15.1758 26.3387 16.1326 28.956 17.7454 31.0565C17.7377 31.0869 17.7329 31.118 17.7329 31.1507C17.7329 31.3716 17.9145 31.5508 18.1383 31.5508C18.3621 31.5508 18.5438 31.3716 18.5438 31.1507C18.5438 30.9299 18.3621 30.7506 18.1383 30.7506ZM35.9226 13.7006C36.2585 13.7006 36.5308 13.9692 36.5308 14.3007C36.5308 14.6322 36.2585 14.9008 35.9226 14.9008C35.5867 14.9008 35.3145 14.6322 35.3145 14.3007C35.3145 13.9692 35.5867 13.7006 35.9226 13.7006Z" fill="white"/>
<rect x="1" y="3" width="52.7203" height="42" rx="2" stroke="white" stroke-width="2"/>
<path d="M76 2L53.7065 16V36L76 47V2Z" stroke="white" stroke-width="2"/>
</svg>
