<svg width="71" height="56" viewBox="0 0 71 56" fill="none" xmlns="http://www.w3.org/2000/svg">
<path d="M35.9367 6.20845C23.0101 -3.22446 7.25949 2.27807 1 6.20845V52.9364C17.7696 46.9971 31.2785 51.6262 35.9367 54.6832C43.6228 48.0452 61.8481 50.7528 70 52.9364V6.20845C57.4228 -3.22456 42.0506 2.27803 35.9367 6.20845Z" stroke="white" stroke-width="2"/>
<path d="M36.8101 48.5693V11.8857C45.1949 5.94649 58.9366 7.08193 64.7594 8.39206V45.0756C50.7847 40.8832 40.3037 45.6579 36.8101 48.5693Z" stroke="white" stroke-width="2"/>
<path d="M40.3037 20.1835C43.2151 18.4367 51.3961 15.6418 60.829 18.4367" stroke="white"/>
<path d="M40.3037 27.9194C43.2151 26.1725 51.3961 23.3776 60.829 26.1725" stroke="white"/>
<path d="M40.3037 35.7802C43.2151 34.0334 51.3961 31.2384 60.829 34.0334" stroke="white"/>
</svg>
