<svg width="30" height="30" viewBox="0 0 30 30" fill="none" xmlns="http://www.w3.org/2000/svg">
<path fill-rule="evenodd" clip-rule="evenodd" d="M4.93549 7.5H25.0642C25.7167 7.5 26.2505 8.03375 26.2505 8.68625V8.81375C26.2505 9.46625 25.7167 10 25.0642 10H4.93549C4.28299 10 3.75049 9.46625 3.75049 8.81375V8.68625C3.75049 8.03375 4.28299 7.5 4.93549 7.5ZM25.0642 13.75H4.93549C4.28299 13.75 3.75049 14.2838 3.75049 14.9363V15.0637C3.75049 15.7163 4.28299 16.25 4.93549 16.25H25.0642C25.7167 16.25 26.2505 15.7163 26.2505 15.0637V14.9363C26.2505 14.2838 25.7167 13.75 25.0642 13.75ZM25.0642 20H4.93549C4.28299 20 3.75049 20.5337 3.75049 21.1862V21.3138C3.75049 21.9663 4.28299 22.5 4.93549 22.5H25.0642C25.7167 22.5 26.2505 21.9663 26.2505 21.3138V21.1862C26.2505 20.5337 25.7167 20 25.0642 20Z" fill="white"/>
</svg>
