<svg width="65" height="58" viewBox="0 0 65 58" fill="none" xmlns="http://www.w3.org/2000/svg">
<rect x="45" y="20" width="3" height="15" rx="1.5" fill="white"/>
<rect x="24" y="58" width="3" height="7" rx="1.5" transform="rotate(-90 24 58)" fill="white"/>
<path fill-rule="evenodd" clip-rule="evenodd" d="M3 3H45V26H48V3C48 1.34315 46.6569 0 45 0H3C1.34315 0 0 1.34315 0 3V55C0 56.6569 1.34315 58 3 58H27V55H3V3Z" fill="white"/>
<path d="M43.2754 54.8931L31.4142 44.7728C31.1848 44.5771 31.156 44.2331 31.3495 44.0018C31.5443 43.7692 31.8908 43.7384 32.1235 43.933L43.273 53.2559C44.6087 54.3727 46.6113 54.1218 47.6301 52.71L62.8994 31.5521C63.1015 31.2721 63.5132 31.2573 63.7349 31.5221C63.8907 31.7082 63.9 31.9765 63.7575 32.173L47.6509 54.3727C46.6233 55.789 44.6066 56.0289 43.2754 54.8931Z" fill="white" stroke="white"/>
<rect x="9" y="10" width="30" height="2" rx="1" fill="white"/>
<rect x="9" y="19" width="30" height="2" rx="1" fill="white"/>
<rect x="9" y="27" width="30" height="2" rx="1" fill="white"/>
<rect x="9" y="35" width="22" height="2" rx="1" fill="white"/>
</svg>
