<svg width="40" height="40" viewBox="0 0 40 40" fill="none" xmlns="http://www.w3.org/2000/svg">
<path d="M20 0C15.256 0 10.8991 1.65321 7.47028 4.41295C7.35633 4.36963 7.23296 4.34467 7.10347 4.34467C6.53231 4.34467 6.06898 4.808 6.06898 5.37916C6.06898 5.95032 6.53231 6.41365 7.10347 6.41365C7.67463 6.41365 8.13796 5.95032 8.13796 5.37916C8.13796 5.18564 8.08381 5.0053 7.99152 4.85038C11.2899 2.23237 15.4618 0.666745 20.0005 0.666745C30.6783 0.666745 39.3342 9.32266 39.3342 20.0005C39.3342 30.6783 30.6783 39.3342 20.0005 39.3342C9.32266 39.3342 0.666745 30.6783 0.666745 20.0005C0.666745 15.4957 2.20883 11.3526 4.792 8.06592C4.80377 8.06686 4.81554 8.06969 4.82778 8.06969C5.13243 8.06969 5.37964 7.82248 5.37964 7.51783C5.37964 7.21318 5.13243 6.96598 4.82778 6.96598C4.52313 6.96598 4.27593 7.21318 4.27593 7.51783C4.27593 7.55597 4.27969 7.59317 4.28723 7.62896C1.6033 11.0333 0 15.329 0 20.0005C0 31.0465 8.95444 40.0005 20 40.0005C31.0456 40.0005 40 31.046 40 20.0005C40 8.95491 31.046 0 20 0ZM7.10347 6.20695C6.64626 6.20695 6.27569 5.83637 6.27569 5.37916C6.27569 4.92195 6.64626 4.55138 7.10347 4.55138C7.56068 4.55138 7.93125 4.92195 7.93125 5.37916C7.93125 5.83637 7.56068 6.20695 7.10347 6.20695Z" fill="#0982DA"/>
<path d="M19.6341 23.6615L21.5848 21.6053C23.2051 19.9205 24.3201 18.4604 24.9299 17.2248C25.5397 15.9897 25.8448 14.8366 25.8448 13.7649C25.8448 12.8651 25.5934 11.9799 25.09 11.1083C24.5872 10.2372 23.9162 9.57044 23.078 9.10852C22.2394 8.6466 21.2723 8.41541 20.1762 8.41541C18.4009 8.41541 16.9469 8.97385 15.814 10.0903C14.6811 11.2067 14.0694 12.7384 13.9795 14.685H17.3292C17.3617 13.7447 17.6235 13.0002 18.1146 12.4521C18.6053 11.904 19.2188 11.63 19.9553 11.63C20.6832 11.63 21.2785 11.857 21.7403 12.3109C22.2022 12.7648 22.4333 13.3397 22.4333 14.0347C22.4333 14.7057 22.2107 15.4563 21.7647 16.2864C21.3189 17.1165 20.4213 18.2151 19.0713 19.5806L13.502 25.2606V26.9717H18.8194H35.0803C35.5662 25.9226 35.9457 24.8147 36.2051 23.6615H19.6341Z" fill="#0982DA"/>
<path d="M33.7727 9.5783C33.783 9.53639 33.7896 9.49354 33.7896 9.44834C33.7896 9.14369 33.5424 8.89648 33.2379 8.89648C32.9332 8.89648 32.686 9.14369 32.686 9.44834C32.686 9.75299 32.9332 10.0002 33.2379 10.0002C33.243 10.0002 33.2477 9.99878 33.2528 9.99878C35.3552 12.7811 36.6054 16.2439 36.6054 20.0004C36.6054 21.2586 36.4646 22.4838 36.1994 23.6614C35.94 24.815 35.56 25.923 35.0746 26.9716C32.4396 32.662 26.6796 36.6097 19.9961 36.6097C16.2089 36.6097 12.7203 35.3398 9.92617 33.2063C10.0138 33.0542 10.0651 32.8786 10.0651 32.6902C10.0651 32.1192 9.60174 31.6558 9.03058 31.6558C8.45943 31.6558 7.99609 32.1192 7.99609 32.6902C7.99609 33.2614 8.45943 33.7247 9.03058 33.7247C9.16525 33.7247 9.29333 33.6984 9.41151 33.6513C12.3356 35.9218 16.0079 37.2741 19.9961 37.2741C27.0553 37.2741 33.1243 33.0392 35.804 26.9721C36.2687 25.9197 36.6312 24.8121 36.8799 23.6619C37.1346 22.482 37.2698 21.2572 37.2698 20.0009C37.2703 16.0857 35.9674 12.4751 33.7727 9.5783ZM8.20327 32.6898C8.20327 32.2326 8.57385 31.862 9.03106 31.862C9.48827 31.862 9.85884 32.2326 9.85884 32.6898C9.85884 33.147 9.48827 33.5176 9.03106 33.5176C8.57385 33.5176 8.20327 33.147 8.20327 32.6898Z" fill="#0982DA"/>
<path d="M6.75515 30.0007C6.74997 30.0007 6.74526 30.0021 6.74008 30.0021C4.63767 27.2198 3.38752 23.7571 3.38752 20.0005C3.38752 10.8276 10.8239 3.3912 19.9968 3.3912C23.784 3.3912 27.2726 4.66112 30.0667 6.79461C29.9792 6.9467 29.9278 7.12233 29.9278 7.31068C29.9278 7.88184 30.3912 8.34517 30.9623 8.34517C31.5334 8.34517 31.9967 7.88184 31.9967 7.31068C31.9967 6.73952 31.5334 6.27619 30.9623 6.27619C30.8276 6.27619 30.6996 6.30256 30.5813 6.34964C27.6572 4.07913 23.985 2.72681 19.9963 2.72681C10.4561 2.72681 2.72266 10.4603 2.72266 20.0005C2.72266 23.9153 4.02507 27.5254 6.22024 30.4226C6.20988 30.4645 6.20329 30.5074 6.20329 30.5526C6.20329 30.8572 6.4505 31.1044 6.75515 31.1044C7.0598 31.1044 7.307 30.8572 7.307 30.5526C7.307 30.2479 7.0598 30.0007 6.75515 30.0007ZM30.9623 6.48337C31.4194 6.48337 31.7901 6.85394 31.7901 7.31115C31.7901 7.76836 31.4194 8.13893 30.9623 8.13893C30.5051 8.13893 30.1345 7.76836 30.1345 7.31115C30.1345 6.85394 30.5051 6.48337 30.9623 6.48337Z" fill="#0982DA"/>
</svg>
