<svg width="18" height="18" viewBox="0 0 18 18" fill="none" xmlns="http://www.w3.org/2000/svg">
<path d="M14.25 2.25C14.6478 2.25 15.0294 2.40804 15.3107 2.68934C15.592 2.97064 15.75 3.35217 15.75 3.75V14.25C15.75 14.6478 15.592 15.0294 15.3107 15.3107C15.0294 15.592 14.6478 15.75 14.25 15.75H3.75C3.35218 15.75 2.97064 15.592 2.68934 15.3107C2.40804 15.0294 2.25 14.6478 2.25 14.25V3.75C2.25 3.35217 2.40804 2.97064 2.68934 2.68934C2.97064 2.40804 3.35218 2.25 3.75 2.25H6.885C7.2 1.38 8.025 0.75 9 0.75C9.975 0.75 10.8 1.38 11.115 2.25H14.25ZM9 2.25C8.80109 2.25 8.61032 2.32902 8.46967 2.46967C8.32902 2.61032 8.25 2.80109 8.25 3C8.25 3.19891 8.32902 3.38968 8.46967 3.53033C8.61032 3.67098 8.80109 3.75 9 3.75C9.19891 3.75 9.38968 3.67098 9.53033 3.53033C9.67098 3.38968 9.75 3.19891 9.75 3C9.75 2.80109 9.67098 2.61032 9.53033 2.46967C9.38968 2.32902 9.19891 2.25 9 2.25ZM5.25 5.25V3.75H3.75V14.25H14.25V3.75H12.75V5.25H5.25ZM8.25 6.75H9.75V10.125H8.25V6.75ZM8.25 11.25H9.75V12.75H8.25V11.25Z" fill="#FD625E"/>
</svg>
